<?xml version="1.0" standalone="no"?>
<!DOCTYPE svg PUBLIC "-//W3C//DTD SVG 20010904//EN"
 "http://www.w3.org/TR/2001/REC-SVG-20010904/DTD/svg10.dtd">
<svg version="1.0" xmlns="http://www.w3.org/2000/svg"
 width="744.000000pt" height="265.000000pt" viewBox="0 0 744.000000 265.000000"
 preserveAspectRatio="xMidYMid meet">
<metadata>
Created by potrace 1.16, written by Peter Selinger 2001-2019
</metadata>
<g transform="translate(0.000000,265.000000) scale(0.100000,-0.100000)"
fill="#000000" stroke="none">
<path d="M180 2620 c-12 -17 -55 -69 -96 -117 -41 -48 -77 -97 -79 -108 -10
-42 0 -2078 10 -2082 6 -2 87 -55 180 -118 94 -63 200 -133 238 -156 l68 -42
172 114 c94 63 205 137 245 166 l72 53 -2 1043 -3 1043 -66 75 c-36 41 -80 93
-98 117 -18 23 -37 42 -42 42 -4 0 -37 -38 -72 -85 l-64 -84 -25 27 c-14 15
-44 53 -68 85 -23 31 -46 57 -51 57 -5 0 -36 -35 -70 -77 -34 -43 -65 -82 -69
-86 -4 -5 -34 26 -66 70 -78 107 -82 109 -114 63z m105 -115 c33 -44 65 -79
70 -79 6 0 37 36 71 80 33 43 65 79 71 79 6 0 38 -34 72 -77 33 -42 64 -79 70
-82 5 -3 37 32 72 79 34 47 66 85 70 85 6 0 125 -136 156 -179 14 -19 30
-1643 18 -1902 l-7 -164 -61 -42 c-34 -22 -136 -91 -226 -152 l-164 -112 -58
38 c-194 125 -378 257 -389 278 -16 31 -15 -48 -12 1092 l2 942 82 100 c46 55
87 99 93 97 5 -1 37 -38 70 -81z"/>
<path d="M179 2492 c-20 -20 -49 -55 -65 -76 l-29 -39 -3 -1000 c-2 -791 0
-1003 10 -1015 7 -8 67 -51 132 -96 66 -45 152 -102 190 -128 39 -27 74 -48
80 -48 11 0 258 163 352 233 l61 45 6 938 c3 517 4 972 0 1011 -6 71 -7 75
-65 143 -32 38 -62 70 -66 70 -4 -1 -36 -38 -72 -84 -75 -97 -67 -98 -152 16
-27 37 -53 68 -57 68 -4 0 -38 -38 -76 -85 -37 -47 -71 -85 -75 -85 -4 0 -34
35 -65 78 -32 42 -61 80 -64 84 -4 5 -23 -9 -42 -30z m390 -201 c52 -27 42
-41 -32 -41 -112 0 -197 -90 -197 -207 1 -122 93 -213 217 -213 l58 -1 -23
-19 c-51 -42 -168 -53 -237 -21 -48 22 -118 95 -141 148 -25 56 -23 166 3 224
25 56 82 115 137 141 55 25 153 20 215 -11z m-175 -677 c13 -5 16 -22 16 -87
l0 -80 68 6 c37 4 77 7 90 7 21 0 22 4 22 80 l0 80 75 0 75 0 0 -215 0 -215
-75 0 -75 0 0 85 0 85 -90 0 -89 0 -3 -82 -3 -83 -72 -3 -71 -3 -7 55 c-4 30
-6 123 -4 206 3 120 7 153 19 160 17 11 100 13 124 4z m336 -502 c19 -9 45
-32 58 -51 21 -33 22 -42 20 -190 l-3 -156 -67 -3 -68 -3 0 131 c0 128 0 131
-24 141 -14 7 -35 9 -49 5 -23 -5 -24 -9 -30 -137 -4 -73 -9 -134 -11 -137 -3
-2 -30 -1 -61 3 l-55 6 0 124 c0 115 -2 125 -21 135 -30 17 -62 8 -76 -20 -8
-15 -13 -66 -13 -132 l0 -108 -64 0 -65 0 -7 56 c-9 79 0 234 17 269 35 72
141 96 238 55 l52 -23 47 21 c86 38 128 41 182 14z m-150 -682 l0 -220 -27 0
c-16 0 -52 3 -80 6 l-53 7 0 207 c0 114 3 210 7 213 3 4 39 7 80 7 l73 0 0
-220z"/>
</g>
</svg>
